<svg width="74" height="74" viewBox="0 0 74 74" fill="none" xmlns="http://www.w3.org/2000/svg">
<path d="M59.5083 24.4199V40.2992C59.5083 49.7959 54.0816 53.8657 45.9416 53.8657H18.8391C17.4516 53.8657 16.1258 53.7426 14.8924 53.4651C14.1216 53.3417 13.3816 53.1259 12.7033 52.8792C8.07831 51.1526 5.27246 47.1442 5.27246 40.2992V24.4199C5.27246 14.9233 10.6991 10.8534 18.8391 10.8534H45.9416C52.8483 10.8534 57.8125 13.7825 59.1383 20.4734C59.3541 21.7067 59.5083 22.9708 59.5083 24.4199Z" stroke="#2B3252" stroke-width="4" stroke-miterlimit="10" stroke-linecap="round" stroke-linejoin="round"/>
<path d="M68.7617 33.6703V49.5496C68.7617 59.0462 63.335 63.1161 55.195 63.1161H28.0925C25.8108 63.1161 23.745 62.808 21.9567 62.1296C18.2875 60.773 15.79 57.9671 14.8958 53.4655C16.1292 53.743 17.455 53.8661 18.8425 53.8661H45.945C54.085 53.8661 59.5117 49.7962 59.5117 40.2996V24.4203C59.5117 22.9712 59.3884 21.6763 59.1417 20.4738C65 21.7071 68.7617 25.8387 68.7617 33.6703Z" stroke="#2B3252" stroke-width="4" stroke-miterlimit="10" stroke-linecap="round" stroke-linejoin="round"/>
<path d="M32.3702 40.5147C36.8658 40.5147 40.5102 36.8703 40.5102 32.3747C40.5102 27.8791 36.8658 24.2346 32.3702 24.2346C27.8746 24.2346 24.2301 27.8791 24.2301 32.3747C24.2301 36.8703 27.8746 40.5147 32.3702 40.5147Z" stroke="#2B3252" stroke-width="4" stroke-miterlimit="10" stroke-linecap="round" stroke-linejoin="round"/>
<path d="M14.7383 25.5917V39.1584" stroke="#2B3252" stroke-width="4" stroke-miterlimit="10" stroke-linecap="round" stroke-linejoin="round"/>
<path d="M50.0169 25.5925V39.1593" stroke="#2B3252" stroke-width="4" stroke-miterlimit="10" stroke-linecap="round" stroke-linejoin="round"/>
</svg>
