<svg width="74" height="74" viewBox="0 0 74 74" fill="none" xmlns="http://www.w3.org/2000/svg">
<path d="M43.9736 49.3273H28.5569" stroke="#2B3252" stroke-width="4" stroke-miterlimit="10" stroke-linecap="round" stroke-linejoin="round"/>
<path d="M39.0351 7.76421L38.9426 7.98004L30.0009 28.7309H21.2134C19.1167 28.7309 17.1126 29.1625 15.2934 29.9334L20.6892 17.045L20.8126 16.7367L21.0284 16.2434C21.0901 16.0584 21.1517 15.8734 21.2442 15.7192C25.2834 6.37671 29.8467 4.24921 39.0351 7.76421Z" stroke="#2B3252" stroke-width="4" stroke-linecap="round" stroke-linejoin="round"/>
<path d="M55.6541 29.3477C54.2666 28.9161 52.7866 28.7311 51.3066 28.7311H30.0008L38.9425 7.98024L39.035 7.7644C39.4975 7.91857 39.9291 8.1344 40.3916 8.3194L47.2058 11.1869C50.9983 12.7594 53.65 14.3936 55.2533 16.3669C55.5616 16.7369 55.8083 17.0761 56.0241 17.4769C56.3016 17.9086 56.5175 18.3402 56.6408 18.8027C56.7641 19.0802 56.8566 19.3577 56.9183 19.6044C57.7508 22.1944 57.2575 25.3702 55.6541 29.3477Z" stroke="#2B3252" stroke-width="4" stroke-linecap="round" stroke-linejoin="round"/>
<path d="M66.3587 43.7782V49.7907C66.3587 50.4074 66.3278 51.0241 66.297 51.6407C65.7112 62.4016 59.6987 67.8282 48.2903 67.8282H24.2403C23.5003 67.8282 22.7603 67.7666 22.0512 67.6741C12.2462 67.0266 7.00449 61.7849 6.35699 51.9799C6.26449 51.2707 6.20282 50.5307 6.20282 49.7907V43.7782C6.20282 37.5807 9.96449 32.2466 15.3295 29.9341C17.1795 29.1632 19.1528 28.7316 21.2495 28.7316H51.3428C52.8537 28.7316 54.3336 28.9474 55.6903 29.3482C61.8261 31.2291 66.3587 36.9641 66.3587 43.7782Z" stroke="#2B3252" stroke-width="4" stroke-linecap="round" stroke-linejoin="round"/>
<path d="M20.6892 17.0449L15.2934 29.9333C9.92835 32.2458 6.16669 37.5799 6.16669 43.7774V34.7433C6.16669 25.9866 12.395 18.6791 20.6892 17.0449Z" stroke="#2B3252" stroke-width="4" stroke-linecap="round" stroke-linejoin="round"/>
<path d="M66.349 34.742V43.7761C66.349 36.9928 61.8473 31.227 55.6807 29.377C57.284 25.3686 57.7465 22.2236 56.9757 19.6028C56.914 19.3253 56.8215 19.0478 56.6982 18.8011C62.4332 21.7611 66.349 27.8353 66.349 34.742Z" stroke="#2B3252" stroke-width="4" stroke-linecap="round" stroke-linejoin="round"/>
</svg>
